<?xml version="1.0" standalone="no"?><!DOCTYPE svg PUBLIC "-//W3C//DTD SVG 1.1//EN" "http://www.w3.org/Graphics/SVG/1.1/DTD/svg11.dtd"><svg t="1620802240022" class="icon" viewBox="0 0 1024 1024" version="1.1" xmlns="http://www.w3.org/2000/svg" p-id="3952" xmlns:xlink="http://www.w3.org/1999/xlink" width="64" height="64"><defs><style type="text/css"></style></defs><path d="M530.2 50.9v181.7h166.6L530.2 50.9z m0 0" fill="#206BAB" p-id="3953"></path><path d="M530.2 50.9v181.7H363.6L530.2 50.9z m0 0" fill="#74A2CA" p-id="3954"></path><path d="M629.8 883.7h-197L409 944.3h242.3l-21.5-60.6z m0 0" fill="#F0BB5D" p-id="3955"></path><path d="M629.8 883.7h-197l26.1-60.6 148.3 0.4 22.6 60.2z m0 0M348.5 323.5h363.4v166.6H348.5z" fill="#EEAC38" p-id="3956"></path><path d="M348.5 323.5h181.7v166.6H348.5z" fill="#F0BB5D" p-id="3957"></path><path d="M348.5 490h363.4v287.7H348.5z" fill="#206BAB" p-id="3958"></path><path d="M348.5 490h181.7v287.7H348.5z" fill="#74A2CA" p-id="3959"></path><path d="M424.2 596c58.5 0 106-47.5 106-106s-47.5-106-106-106h-75.7v212h75.7z m0 0" fill="#FFFFFF" p-id="3960"></path><path d="M404.4 470.3l-21.1-21.1 30.3-30.3 21.1 21.1-30.3 30.3z m0 0M404.4 561.1L383.3 540l90.8-90.8 21.1 21.1-90.8 90.8z m0 0M424.2 702.2h30.3v29.9h-30.3zM484.8 702.2h30.3v29.9h-30.3zM545.3 702.2h30.3v29.9h-30.3zM605.9 702.2h30.3v29.9h-30.3zM363.6 974.8h332.6v29.9H363.6z" fill="#1C1C1A" p-id="3961"></path><path d="M333.6 792.6h393.3V308.5H333.6v484.1z m29.8-29.8v-30.7h30.5v-29.9h-30.5v-91.3h60.8c61.6 0 112.6-46.3 120-106H697v197.3h-30.5v29.9H697v30.7H363.4z m0-181.7V399h60.8c50.2 0 91.1 40.9 91.1 91.1 0 50.2-40.8 91.1-91.1 91.1h-60.8zM697 338.4v136.7H544.2c-7.4-59.7-58.3-106-120-106h-60.8v-30.7H697z m0 0M530.2 28.8L329.7 247.5h401L530.2 28.8z m0 44.2l132.6 144.7H397.6L530.2 73z m0 0M333.3 263.1H727V293H333.3zM627.4 838.1h23.9v-29.9H409v29.9h23.9l-34.2 91.3h-35.1v29.9h333.1v-29.9h-35.1l-34.2-91.3z m-185.3 60.5h27.5v-29.9h-16.3l11.5-30.7h130.7l11.5 30.7h-16.3v29.9h27.5l11.5 30.7H430.6l11.5-30.7z m0 0" fill="#1C1C1A" p-id="3962"></path><path d="M575.6 535.7h106v29.9h-106zM605.9 581.1h75.7V611h-75.7z" fill="#FFFFFF" p-id="3963"></path></svg>