<?xml version="1.0" standalone="no"?><!DOCTYPE svg PUBLIC "-//W3C//DTD SVG 1.1//EN" "http://www.w3.org/Graphics/SVG/1.1/DTD/svg11.dtd"><svg t="1620976853812" class="icon" viewBox="0 0 1024 1024" version="1.1" xmlns="http://www.w3.org/2000/svg" p-id="4813" xmlns:xlink="http://www.w3.org/1999/xlink" width="64" height="64"><defs><style type="text/css"></style></defs><path d="M635.6 841.5c0 68-54.6 140.9-122.6 140.9s-125.2-40.6-118.1-134.6c0 0.1 123.3 138.3 240.7-6.3" fill="#74A2CA" p-id="4814"></path><path d="M713 213.1c0 25.5-89.6 46.2-200 46.2-110.5 0-200-20.7-200-46.2 0-25.5 89.6-46.2 200-46.2 110.5 0 200 20.7 200 46.2z m0 0" fill="#F0BB5D" p-id="4815"></path><path d="M713 228.5c0-110.5-89.6-200-200-200-110.5 0-200 89.6-200 200 0 0 181.4-78.9 400 0" fill="#206BAB" p-id="4816"></path><path d="M447 192.4s-80.7-85.4 35.2-164h61.5s101 40.2 37.1 167l-133.8-3z m0 0" fill="#FFFFFF" p-id="4817"></path><path d="M636.1 844l-46.2-215.4H436.1L395 847.9c-0.1 0 120.8 137.9 241.1-3.9" fill="#EEAC38" p-id="4818"></path><path d="M513 908V628.5h-76.9L395 847.8c-0.1 0.1 46.9 55.7 118 60.2z m0 0" fill="#F0BB5D" p-id="4819"></path><path d="M636.1 852.6c0 68-55.1 129.8-123.1 129.8 0 0 19.4-26.4 0-74.4 0 0 73.8 3.9 123.1-66.5v11.1z m0 0" fill="#206BAB" p-id="4820"></path><path d="M559.2 751.6c0 25.5-20.7 46.2-46.2 46.2-25.5 0-46.2-20.7-46.2-46.2 0-25.5 20.7-46.2 46.2-46.2 25.5 0.1 46.2 20.7 46.2 46.2z m0 0" fill="#FFFFFF" p-id="4821"></path><path d="M423.4 613.1l-48.9 244.7v1.5c0 76.4 62.1 138.5 138.5 138.5s138.5-62.1 138.5-138.5v-1.5l-48.9-244.7H423.4z m25.3 30.8h128.6l38.3 191.6-0.3-0.2c-20 30-51.8 49.4-87 53.8v-77.9c26.5-6.9 46.2-31 46.2-59.6 0-33.9-27.6-61.5-61.6-61.5-33.9 0-61.5 27.6-61.5 61.5 0 28.6 19.6 52.8 46.2 59.6v77.9c-35.2-4.4-67-23.8-87-53.8l-0.3 0.2 38.4-191.6zM513 782.4c-17 0-30.8-13.8-30.8-30.8s13.8-30.8 30.8-30.8 30.8 13.8 30.8 30.8-13.8 30.8-30.8 30.8z m0 184.7c-52.8 0-96.8-38.2-105.9-88.5 28.3 26.9 66 42.3 105.9 42.3 39.9 0 77.7-15.4 106-42.3-9.2 50.2-53.2 88.5-106 88.5z m0 0M728.4 228.5C728.4 109.7 631.8 13 513 13c-118.8 0-215.4 96.6-215.4 215.4v4.5l0.7 1.1c1.1 4.1 3.3 7.7 7 11.1l164.4 260.4h-2.9v30.8h30.8V567h-46.2v30.8h123.1V567h-46.2v-30.8h30.8v-30.8h-2.9L720.6 245c3.7-3.3 5.9-7 7-11.1l0.7-1.1v-4.3z m-230.8-16.2v32.2c-80.6-0.9-133.5-9.1-157.5-16.1 24-7 77-15.1 157.5-16.1z m30.8 0c80.6 0.9 133.5 9.1 157.5 16.1-24 7.1-76.9 15.2-157.5 16.1v-32.2z m166.9-13.1c-10.2-3.1-22.9-5.9-38.5-8.3-14-2.2-29.6-4-46.4-5.5 6.8-15.4 10.3-32.1 10.3-49.3 0-24.9-5.4-48.2-15.4-67.5 47.1 27.3 81.1 74.8 90 130.6z m-105.4-63.1c0 16.7-4.4 32.8-12.8 47-20.4-1.1-42-1.6-64.1-1.6-22.1 0-43.7 0.6-64.1 1.6-8.4-14.2-12.8-30.3-12.8-47 0-68.1 41.4-92.3 76.9-92.3 35.5 0 76.9 24.2 76.9 92.3zM420.7 68.6c-10 19.3-15.4 42.6-15.4 67.5 0 17.2 3.5 33.9 10.3 49.3-16.8 1.5-32.4 3.3-46.4 5.5-15.6 2.5-28.3 5.2-38.5 8.3 8.9-55.8 42.9-103.3 90-130.6zM369.2 266c34.9 5.5 80 8.8 128.5 9.3V492L353.1 263.2c5 0.9 10.3 1.9 16.1 2.8z m159.2 226V275.3c48.4-0.6 93.6-3.8 128.5-9.3 5.7-0.9 11.1-1.8 16.1-2.8L528.4 492z m0 0" fill="#1C1C1A" p-id="4822"></path></svg>