<?xml version="1.0" standalone="no"?><!DOCTYPE svg PUBLIC "-//W3C//DTD SVG 1.1//EN" "http://www.w3.org/Graphics/SVG/1.1/DTD/svg11.dtd"><svg t="1620800606765" class="icon" viewBox="0 0 1024 1024" version="1.1" xmlns="http://www.w3.org/2000/svg" p-id="2231" xmlns:xlink="http://www.w3.org/1999/xlink" width="64" height="64"><defs><style type="text/css"></style></defs><path d="M936.2 519.2c0 238.5-193.3 431.8-431.8 431.8S72.7 757.7 72.7 519.2 266 87.4 504.5 87.4s431.7 193.3 431.7 431.8z m0 0" fill="#F0BB5D" p-id="2232"></path><path d="M643.7 115.3s-158.9 64.6-236.8-13.9c0 0-183.3 36.4-181.1 111.4 0 0 136.4 90.4 431.8 55.7 0 0 135.1-33.1 236.8 69.6 0.1 0-95-200.4-250.7-222.8z m0 0" fill="#206BAB" p-id="2233"></path><path d="M936.2 519.2c0 238.5-193.3 431.8-431.8 431.8C266 951 72.7 757.6 72.7 519.2" fill="#EEAC38" p-id="2234"></path><path d="M657.7 909.2c0 23.1-102.3 41.8-125.4 41.8-23.1 0-125.4-4.8-125.4-27.9 0-23.1 102.3-41.8 125.4-41.8 23.1 0 125.4 4.8 125.4 27.9z m0 0M75.4 535.5s-23 59.5 78.2 236.4c0 0 159-101.5 378.7-2.1s362.1-55.7 362.1-55.7 60.1-145.5 41.2-236.8c0 0-151.7 102.1-403.4 0.1 0.1 0-304.4-160-456.8 58.1z m0 0" fill="#74A2CA" p-id="2235"></path><path d="M921.4 361c0-0.1-0.1-0.2-0.1-0.4-22.1-58.1-56.4-111.4-101.6-156.6-84.3-84.2-196.2-130.5-315.2-130.5-119.1 0-231 46.4-315.2 130.5-84.2 84.2-130.6 196.1-130.6 315.2s46.4 231 130.5 315.2C273.4 918.6 385.3 965 504.4 965s231-46.4 315.2-130.6c84.2-84.2 130.6-196.1 130.6-315.2 0-54.9-9.9-108.3-28.8-158.2z m-68.5-72.6c-61.8-37.5-146.9-48.9-253-33.7-128.4 18.4-224.7-0.8-282.9-20.1-37.8-12.5-64.8-26.7-80.5-36.1 45.4-38 97.6-65.6 153.7-81.4 10.3 7.6 32.1 21.5 65.4 30.6 18.1 5 41.3 8.9 69.3 8.9 36.3 0 80.7-6.7 132.6-26.4 52.7 20.7 101.1 52.3 142.3 93.5 20.1 20 37.8 41.7 53.1 64.7zM613.4 115.6c-66.5 19-116.5 14.2-148.5 5.7-14.3-3.8-26.2-8.6-35.6-13.2 24.6-4.4 49.7-6.7 75.2-6.7 37.2-0.1 73.8 4.8 108.9 14.2zM209 223.7c2-2 4-3.9 6-5.9 15.5 10 46.2 27.4 91.8 42.7 111 37.2 222.8 32.3 297.1 21.7 69.6-10 167.3-12.5 237.5 31.8 32.7 20.6 49.3 45.8 53.8 56.5 12.4 32.8 20.7 67.2 24.6 102.5-14.5 10.8-44.9 26.9-89.8 35-113.1 20.5-244.1-20-334.1-57.5-76-31.7-146.1-46.9-208.2-45.2-50.5 1.4-96 13.8-135.1 37-29.5 17.5-50.8 38.3-65.5 56.4 4.9-103.8 47.8-200.9 121.9-275z m206.7 703.9c11-6.3 25.3-13 43.3-18.6 64.6-19.9 133.5-11.3 188.1 3.1C602 928.5 553.9 937 504.5 937c-30.3 0-60-3.2-88.8-9.4z m384.2-112.9c-33.4 33.4-71.4 60.4-112.6 80.4-62.3-20.7-153.3-39-238.6-12-34.1 10.8-56.9 25.6-69.1 35.1-63.7-19.9-122.1-55-170.7-103.5-12.3-12.3-23.7-25.2-34.2-38.6 39.5-18.6 177.5-71.1 351.9 6.6 58 25.9 110.3 35 155.2 35 44.4 0 81.7-9 110.2-19.6 14.3-5.3 27.1-11.3 38.4-17.3-9.5 11.7-19.6 23-30.5 33.9z m71.5-95.4l-0.9-0.9c-0.3 0.3-31.7 32.4-88.2 53.5-76.3 28.5-158.5 23.5-244.3-14.7-114.4-51-213.7-48.2-276.9-37-51.2 9.1-87.2 25-103 32.9-41.2-60.7-65.5-130.9-70.5-205 6.7-13 30.1-52.6 79.2-81.7 35-20.7 75.9-31.9 121.7-33.1 58.2-1.6 124.4 12.9 196.7 43.1 75.3 31.4 146.1 51.7 210.3 60.3 51.9 7 99.9 6.4 142.4-1.7 39-7.4 66.6-19.9 84.1-30.2 0.2 4.8 0.3 9.6 0.3 14.5 0 71-17.7 139.4-50.9 200z m0 0" fill="#1C1C1A" p-id="2236"></path></svg>