<?xml version="1.0" standalone="no"?><!DOCTYPE svg PUBLIC "-//W3C//DTD SVG 1.1//EN" "http://www.w3.org/Graphics/SVG/1.1/DTD/svg11.dtd"><svg t="1620800117301" class="icon" viewBox="0 0 1024 1024" version="1.1" xmlns="http://www.w3.org/2000/svg" p-id="9896" xmlns:xlink="http://www.w3.org/1999/xlink" width="64" height="64"><defs><style type="text/css"></style></defs><path d="M50.5 525.7c0-252.9 205-457.9 457.9-457.9s457.9 205 457.9 457.9v457.9H50.5V525.7z m0 0" fill="#206BAB" p-id="9897"></path><path d="M789.2 496.1h177.3v162.5H789.2z" fill="#EEAC38" p-id="9898"></path><path d="M50.5 510.9c0-179.5 187.9-439.4 369.3-413.6 177.7 25.2 325 145.5 325 325v561.4H50.5V510.9" fill="#74A2CA" p-id="9899"></path><path d="M277.7 141.6c114.6-34.5 289.9 129.8 289.9 289.9v287.7c0 64.5-52.2 116.7-116.7 116.7H50.5V496.1s30.6-295.4 227.2-354.5z m0 0" fill="#FFFFFF" p-id="9900"></path><path d="M50.5 880.2h369.3v59.1H50.5z" fill="#F0BB5D" p-id="9901"></path><path d="M405.1 304.1c-24.5 0-44.3-19.8-44.3-44.3 0-24.5 19.8-44.3 44.3-44.3v88.6z m0 0" fill="#206BAB" p-id="9902"></path><path d="M803.9 570c0 89.7-72.7 162.5-162.5 162.5-89.7 0-162.4-72.7-162.4-162.5 0-89.7 72.7-162.5 162.5-162.5 89.7 0 162.4 72.8 162.4 162.5z m0 0" fill="#F0BB5D" p-id="9903"></path><path d="M744.9 570c0 57.1-46.3 103.4-103.4 103.4S538 627.1 538 570s46.3-103.4 103.4-103.4S744.9 512.9 744.9 570z m0 0" fill="#206BAB" p-id="9904"></path><path d="M685.8 570c0 24.5-19.8 44.3-44.3 44.3-24.5 0-44.3-19.8-44.3-44.3 0-24.5 19.8-44.3 44.3-44.3 24.4 0 44.3 19.8 44.3 44.3z m0 0" fill="#FFFFFF" p-id="9905"></path><path d="M405.1 200.7h295.5v118.2H405.1z" fill="#F0BB5D" p-id="9906"></path><path d="M405.1 259.8h295.5v59.1H405.1z" fill="#EEAC38" p-id="9907"></path><path d="M641.4 688c-65 0-118-52.9-118-118 0-65 52.9-118 118-118 65 0 118 52.9 118 118s-52.9 118-118 118z m0-206.8c-49 0-88.9 39.9-88.9 88.9 0 49 39.9 88.9 88.9 88.9 49 0 88.9-39.9 88.9-88.9 0-49.1-39.9-88.9-88.9-88.9z m0 0" fill="#1C1C1A" p-id="9908"></path><path d="M464.2 895.2h29.6v29.1h-29.6zM523.3 895.2h29.6v29.1h-29.6zM582.3 895.2h29.5v29.1h-29.5z" fill="#FFFFFF" p-id="9909"></path><path d="M134.7 506.4l-20.6-20.6L320.9 279l20.6 20.6-206.8 206.8z m0 0M297.2 462.1l-20.6-20.6 73.9-73.9 20.6 20.6-73.9 73.9z m0 0M319.4 572.9l-20.6-20.6L476 375.1l20.6 20.6-177.2 177.2z m0 0M400.6 595.1L380 574.5l44.3-44.3 20.6 20.6-44.3 44.3z m0 0M230.7 765l-20.6-20.6L350.5 604l20.6 20.6L230.7 765z m0 0M193.8 595.1l-20.6-20.6 36.9-36.9 20.6 20.6-36.9 36.9z m0 0M641.4 628.9c-32.5 0-58.9-26.4-58.9-58.9s26.4-58.9 58.9-58.9 58.9 26.4 58.9 58.9-26.4 58.9-58.9 58.9z m0-88.6c-16.4 0-29.8 13.3-29.8 29.8 0 16.4 13.3 29.8 29.8 29.8 16.4 0 29.8-13.4 29.8-29.8 0-16.5-13.3-29.8-29.8-29.8z m0 0" fill="#1C1C1A" p-id="9910"></path><path d="M842.6 191.6C753.4 102.3 634.7 53.2 508.5 53.2c-126.2 0-244.9 49.2-334.1 138.4C85.1 280.8 36 399.5 36 525.7v472.5h945V525.7c0-126.2-49.2-244.9-138.4-334.1zM822 212.2c73.3 73.3 117.7 167.6 127.7 269.4H794.8c-30.7-52.9-87.9-88.6-153.4-88.6-21 0-41.2 3.7-59.9 10.4-1.5-23.9-5.8-47.3-13-70h146.6V186.1h-251c-44.8-33.7-96.9-53.5-152.3-58.1 60.4-29.9 127.3-45.8 196.7-45.8 118.4 0.1 229.8 46.2 313.5 130z m129.9 313.5v118.4H802.2c10.4-22.5 16.3-47.6 16.3-74.1 0-20.8-3.6-40.8-10.2-59.3h143.3c0.2 5 0.3 10 0.3 15zM493.5 570c0-81.6 66.4-147.9 147.9-147.9 81.6 0 147.9 66.4 147.9 147.9 0 81.6-66.4 147.9-147.9 147.9-81.5 0.1-147.9-66.3-147.9-147.9z m-73.9-354.7H686v30H479v29.1h207v30H419.6v-89.1zM195 212.2c21.1-21.1 44-39.8 68.2-56h23.7c43.5 0 85.3 10.3 122.9 30h-19.3v16.6c-25.4 6.5-44.3 29.6-44.3 57s18.9 50.5 44.3 57v16.6h147.3c9.5 26.7 14.6 54.7 15.1 83.3-52.9 30.7-88.6 87.9-88.6 153.3s35.6 122.6 88.5 153.3c-2.9 54.6-48.2 98.1-103.5 98.1H65.1V525.7c0-118.4 46.1-229.8 129.9-313.5z m195.5 73.5c-9.1-5.1-15.2-14.8-15.2-25.9 0-11.1 6.1-20.8 15.2-25.9v51.8zM65.1 894.8h340.2v30H65.1v-30z m0 74.3v-15.2h369.3v-88.2H65.1v-15.2h384.3c66.9 0 122.3-49.7 131.4-114.1 18.9 6.9 39.4 10.7 60.6 10.7 59.2 0 111.6-29.2 143.8-73.9h166.7v222H641.4v29.1h310.4v44.8H65.1z m0 0" fill="#1C1C1A" p-id="9911"></path></svg>