<?xml version="1.0" standalone="no"?><!DOCTYPE svg PUBLIC "-//W3C//DTD SVG 1.1//EN" "http://www.w3.org/Graphics/SVG/1.1/DTD/svg11.dtd"><svg t="1620614536709" class="icon" viewBox="0 0 1024 1024" version="1.1" xmlns="http://www.w3.org/2000/svg" p-id="13955" xmlns:xlink="http://www.w3.org/1999/xlink" width="64" height="64"><defs><style type="text/css"></style></defs><path d="M910.5 857c0 39.3-31.8 71.1-71.1 71.1s-71.1-31.9-71.1-71.1c0-39.3 31.9-71.1 71.1-71.1 39.3 0 71.1 31.8 71.1 71.1z m0 0M811 529.9c0 165-133.7 298.7-298.7 298.7S213.6 694.9 213.6 529.9s133.7-298.7 298.7-298.7C677.2 231.1 811 364.9 811 529.9z m0 0" fill="#206BAB" p-id="13956"></path><path d="M512.2 829.8c-165 0-298.7-133.7-298.7-298.7s133.7-298.7 298.7-298.7" fill="#74A2CA" p-id="13957"></path><path d="M498 828.6s77.3 15.1 170.7-42.7l14.2-14.2-28.5-28.5 14.2-85.3-42.6-42.7-56.9-28.5h-85.3L441.1 601l-28.5 56.9 14.2 71.1h56.9l14.2 56.9v42.7z m0 0M370 330.7h28.5l42.7-85.3s-48.7-9.7-99.6 42.7l28.4 42.6z m0 0M640.3 416.1l14.2 71.1v42.7L626 558.3l56.9 14.2 28.5-71.1-14.2-99.6 56.9 28.5h28.4c-13.9-103.7-128-156.5-128-156.5l-42.7-14.2-42.7 28.4-14.2 42.7H498l14.2 28.4v71.1h-56.9v71.1l56.9 14.2 56.9-14.2v-71.1l71.2-14.1z m0 0M227.8 572.5l71.1 14.2 28.5 42.7v56.9L313.1 729l-14.2 14.2s-79-79.4-71.1-170.7z m0 0" fill="#F0BB5D" p-id="13958"></path><path d="M512.2 984.8h-4.5l0.3-27.9c18.2 0.2 36.7-0.8 54.8-2.9l3.3 27.7c-17.8 2-35.9 3.1-53.9 3.1z m-33.6-1.3c-19.4-1.4-38.9-4.1-57.9-8l5.6-27.3c17.8 3.6 36.1 6.2 54.3 7.5l-2 27.8z m116.4-6.2l-5-27.5c17.9-3.3 35.8-7.8 53.2-13.4l8.5 26.6c-18.6 6-37.6 10.7-56.7 14.3z m-202.7-8.5c-18.7-5.1-37.3-11.5-55.3-19l10.8-25.7c16.8 7 34.3 13 51.9 17.8l-7.4 26.9z m286.8-15.6l-10.2-26c16.9-6.7 33.6-14.5 49.6-23.4l13.5 24.4c-17 9.5-34.8 17.8-52.9 25z m-368.7-15.6c-17.4-8.6-34.4-18.5-50.6-29.3l15.5-23.2c15.2 10.1 31.1 19.4 47.5 27.5l-12.4 25zM236 891.3c-15.4-11.8-30.2-24.7-44-38.4l19.6-19.8c13 12.8 26.9 25 41.3 36L236 891.3z m-64.1-59.6c-12.9-14.5-25-30-35.9-46.1l23.1-15.7c10.3 15.1 21.6 29.6 33.7 43.2l-20.9 18.6z m-51.5-70.6c-9.9-16.7-18.8-34.2-26.4-52.1l25.6-11c7.2 16.7 15.5 33.2 24.8 48.9l-24 14.2z m791-12.9l-24.5-13.4c8.8-16 16.6-32.7 23.2-49.7l26 10.2c-7 18.1-15.4 35.9-24.7 52.9zM83.3 681.8c-6.5-18.3-11.8-37.2-15.9-56.2l27.3-5.8c3.8 17.8 8.8 35.6 14.9 52.7l-26.3 9.3z m862.6-14.1l-26.6-8.4c5.5-17.4 10-35.3 13.2-53.2l27.5 5c-3.5 19-8.2 38.1-14.1 56.6zM62.2 596.9c-2.8-19.2-4.5-38.7-4.8-58.2l27.9-0.5c0.3 18.3 1.9 36.7 4.5 54.6l-27.6 4.1z m902-14.8l-27.7-3.2c1.8-16.2 2.8-32.7 2.8-49v-5.8l27.9-0.4v6.1c-0.1 17.5-1 35.1-3 52.3zM85.7 510.7l-27.9-1.2c0.9-19.4 3-39 6.3-58.1l27.5 4.8c-3.2 17.9-5.1 36.2-5.9 54.5z m852.3-14c-1.4-18.2-4-36.5-7.7-54.3l27.3-5.7c3.9 19 6.7 38.4 8.2 57.8l-27.8 2.2zM97.1 429.3L70 422.8c4.6-18.9 10.4-37.7 17.4-55.8l26.1 10c-6.6 17-12.1 34.6-16.4 52.3z m826.7-13.5c-4.9-17.5-10.9-35-18-51.8l25.7-10.8c7.6 17.9 14 36.5 19.2 55.2l-26.9 7.4z m-799.7-64.1L98.7 340c8.1-17.6 17.5-34.9 27.8-51.4l23.6 14.8c-9.6 15.5-18.4 31.7-26 48.3z m770.3-12.6c-8.1-16.3-17.4-32.2-27.6-47.3l23.2-15.6c10.9 16.1 20.7 33.1 29.4 50.4l-25 12.5z m-728.9-58.5l-22.7-16.3c11.3-15.8 23.8-30.9 37.1-45.1l20.4 19.1c-12.5 13.3-24.2 27.6-34.8 42.3z m685.2-11.1c-11.1-14.4-23.3-28.3-36.2-41.2l19.8-19.7c13.7 13.8 26.7 28.5 38.5 43.9l-22.1 17z m-631-50.7l-19.1-20.3c14.1-13.3 29.3-25.8 45-37.2l16.4 22.6c-14.9 10.7-29.1 22.4-42.3 34.9z m574.9-9.3c-13.7-12.1-28.3-23.4-43.4-33.6l15.6-23.1c16.1 10.9 31.6 22.9 46.2 35.8l-18.4 20.9z m-510-41l-14.9-23.6c16.4-10.4 33.7-19.8 51.3-27.9l11.7 25.3c-16.5 7.7-32.7 16.5-48.1 26.2z m443.4-7.2c-15.7-9.2-32.2-17.5-49-24.6l11-25.7c17.9 7.6 35.4 16.4 52.2 26.3l-14.2 24z m-370.1-29.7l-10.1-26c18.1-7 36.9-12.9 55.7-17.6l6.6 27.1c-17.6 4.4-35.2 9.9-52.2 16.5z m295.5-4.9c-17.2-6-35-11-52.8-14.7l5.7-27.3c19 4 38 9.3 56.3 15.7l-9.2 26.3zM437 109.5L432.1 82c19.1-3.4 38.6-5.6 58-6.5l1.3 27.9c-18.2 0.8-36.5 2.9-54.4 6.1z m136.6-2.3c-18-2.6-36.4-4-54.7-4.3l0.4-27.9c19.5 0.3 39.1 1.8 58.2 4.6l-3.9 27.6z m0 0M887.6 787c2.8-4.1 5.5-8.1 8.1-12.2l-23.5-15c-3.3 5.1-6.7 10.3-10.3 15.3-7.2-2-14.7-3-22.5-3-46.9 0-85.1 38.2-85.1 85.1 0 7.8 1.1 15.3 3 22.5-5 3.5-10.2 7-15.3 10.3l15 23.5c4.1-2.6 8.2-5.3 12.2-8.1 15.4 22.3 41 36.9 70.1 36.9 46.9 0 85.1-38.2 85.1-85.1 0.1-29.2-14.6-54.9-36.8-70.2z m-48.2 127.2c-31.5 0-57.2-25.6-57.2-57.2 0-31.5 25.6-57.2 57.2-57.2 31.5 0 57.2 25.6 57.2 57.2 0 31.5-25.7 57.2-57.2 57.2z m0 0M512.2 217.2c-172.4 0-312.7 140.3-312.7 312.7 0 172.4 140.3 312.7 312.7 312.7 172.4 0 312.7-140.3 312.7-312.7 0-172.4-140.3-312.7-312.7-312.7z m261.2 199.1h-16l-77.8-38.9L697 499.7 674.5 556l-21.2-5.3 15.1-15.1v-64.4l-17.9-71.5-95.4 19.1v71.7l-42.9 10.7-42.9-10.7v-46.3h56.9v-88.4l-5.6-11.2H565l15.6-46.7 51.7-25.9-0.3-0.5c63 29.4 113.5 81.1 141.4 144.8z m-355.9-155l-27.7 55.5h-12.4l-18.1-27.1c18.2-11.6 37.7-21.1 58.2-28.4zM233.9 590.1l56.7 9.4 22.7 34.1v51l-9.7 38.9c-34.1-36.8-58.7-82.6-69.7-133.4zM512 814.6v-30.4L494.7 715h-56.4l-11-55.2 23.7-47.4 35-11.7h79.8l51.9 26 36 36-14.2 85.3 23.4 23.4c-43.7 27.4-95.4 43.2-150.7 43.2h-0.2z m174.2-59.4l-16.7-16.7 14.2-85.3-49.4-49.4-61.9-30.9h-90.9l-50.3 16.8-33.2 66.2 17.4 87h57.4l11.2 44.7v25.6c-59.7-5.9-114.1-30.3-157.2-67.4l14.4-57.8v-62.8L307.1 574l-77.9-13c-1.1-10.2-1.7-20.6-1.7-31.1 0-90.8 42.7-171.8 109.2-224l25.9 38.8h44.5l46.5-93.1-0.6-0.3c19.1-4.1 38.9-6.2 59.2-6.2 29.7 0 58.4 4.6 85.4 13.1l-39.9 20-12.9 38.6h-69.4l22.9 45.7v53.9h-56.9v96l70.8 17.7 70.9-17.7v-70.6l46.9-9.4 10.6 42.3v49.4l-41.8 41.8 92.6 23.2 34.4-85.9-11-76.9 36 18h33.1c8.5 27 13.2 55.8 13.2 85.6-0.1 91.5-43.6 173.1-110.9 225.3z m0 0" fill="#1C1C1A" p-id="13959"></path></svg>